<svg width="22" height="18" viewBox="0 0 22 18" fill="none" xmlns="http://www.w3.org/2000/svg">
<path d="M19 5V3C19 1.35 17.65 0 16 0H6C4.35 0 3 1.35 3 3V5C1.35 5 0 6.35 0 8V13C0 14.65 1.35 16 3 16V17C3 17.55 3.45 18 4 18C4.55 18 5 17.55 5 17V16H17V17C17 17.55 17.45 18 18 18C18.55 18 19 17.55 19 17V16C20.65 16 22 14.65 22 13V8C22 6.35 20.65 5 19 5ZM5 3C5 2.45 5.45 2 6 2H16C16.55 2 17 2.45 17 3V5.78C16.39 6.33 16 7.12 16 8V10H6V8C6 7.12 5.61 6.33 5 5.78V3ZM20 13C20 13.55 19.55 14 19 14H3C2.45 14 2 13.55 2 13V8C2 7.45 2.45 7 3 7C3.55 7 4 7.45 4 8V12H18V8C18 7.45 18.45 7 19 7C19.55 7 20 7.45 20 8V13Z" fill="black" fill-opacity="0.6"/>
</svg>
