<svg width="218" height="320" viewBox="0 0 218 320" fill="none" xmlns="http://www.w3.org/2000/svg">
<path d="M213.939 286.613C214.498 286.659 214.827 286.716 215.34 286.972C215.447 287.134 215.622 287.266 215.66 287.456C215.752 287.909 214.656 291.565 214.544 292.359C213.696 298.357 214.975 302.803 215.758 308.592C215.849 309.265 215.748 309.433 215.337 309.959C214.688 310.08 214.144 310.233 213.498 310.006C212.101 308.511 212.013 303.515 211.895 301.444C211.675 297.605 211.364 289.481 213.939 286.613Z" fill="#231F20"/>
<path d="M51.9998 295.114C51.9896 295.055 51.9835 294.996 51.9693 294.938C51.7191 293.896 51.0012 292.834 50.6253 291.803C49.2069 287.913 49.2818 283.774 51.342 280.119C54.2569 274.947 59.7726 271.78 65.3307 270.296C69.1893 269.264 73.2305 268.73 77.1737 268.118C86.5459 266.665 95.9414 265.714 105.372 264.744C112.474 264.014 119.715 262.867 126.84 262.566C133.351 262.293 139.783 262.87 146.281 262.94C160.853 263.095 175.381 262.658 189.723 265.835C194.511 266.896 199.421 268.797 203.635 271.287C207.048 273.303 211.425 276.346 212.451 280.406C213.279 283.678 212.315 287.054 210.572 289.848C203.445 301.278 184.673 307.941 172.061 310.764C163.366 312.71 154.367 313.898 145.469 314.336C138.225 314.693 131.051 314.262 123.822 313.993C108.606 313.428 91.3055 312.927 76.6209 309.077C70.3009 307.42 64.3435 304.964 58.7988 301.482C57.6261 300.746 53.5093 296.651 52.9012 296.734C52.8344 296.744 52.7795 296.792 52.7185 296.821C52.4761 298.54 53.3584 303.376 53.5036 305.494C53.674 307.981 54.2947 318.391 52.9573 319.921C52.4923 320.033 52.2349 320.059 51.7927 319.773C51.2774 319.439 51.2757 318.874 51.2342 318.322C51.0752 316.208 51.2485 313.955 51.2485 311.829C51.2485 307.254 51.0976 302.764 50.4146 298.234C49.8882 298.066 49.5311 297.909 49.0686 297.59C48.7867 297.065 48.7635 297.092 48.9092 296.519C49.78 295.632 50.8291 295.402 51.9998 295.114Z" fill="#231F20"/>
<path d="M129.514 265.448C135.197 265.373 140.833 266.013 146.506 266.02C164.774 266.04 192.379 264.165 207.02 277.044C208.644 278.473 210.206 280.341 210.286 282.605C210.422 286.482 208.005 290.088 205.385 292.721C202.33 295.791 198.514 298.212 194.698 300.219C176.181 309.957 153.461 311.533 132.921 311.567C126.434 311.665 119.813 311.296 113.328 311.042C95.6496 310.348 70.6148 309.456 56.9788 296.699C54.2575 294.153 52.3356 291.024 52.2253 287.204C52.1216 283.623 53.4969 280.489 55.933 277.914C58.3793 275.328 61.576 273.529 64.9506 272.455C70.8609 270.575 77.6372 270.153 83.7858 269.398C93.9155 268.154 104.083 267.237 114.258 266.47C119.34 266.088 124.42 265.602 129.514 265.448Z" fill="#FEFEFE"/>
<path d="M143.633 270.878C145.321 270.715 146.622 270.807 148.14 271.614C149.753 272.471 151.511 274.298 151.964 276.112C152.084 276.591 152.059 277.094 151.746 277.498C150.979 278.487 146.769 278.325 145.532 278.423C143.583 278.585 140.248 279.466 138.456 279.12C138.076 279.047 137.559 278.694 137.404 278.343C137.116 277.691 137.369 277.043 137.655 276.438C138.886 273.834 140.954 271.883 143.633 270.878Z" fill="#231F20"/>
<path d="M121.739 273.32C123.775 273.211 125.462 273.297 127.373 274.068C129.065 274.752 132.829 276.968 133.326 278.776C133.474 279.314 133.283 279.567 133.051 280.026C131.951 280.98 128.984 281.019 127.528 281.204C124.65 281.376 121.142 281.782 118.395 280.727C117.471 280.371 116.368 279.762 116.034 278.759C115.798 278.05 116.041 277.273 116.395 276.649C117.527 274.652 119.65 273.873 121.739 273.32Z" fill="#231F20"/>
<path d="M154.714 278.662L155.493 278.617C156.48 278.566 158.005 278.403 158.865 278.913C159.664 279.388 160.321 281.21 160.896 282.003C162.125 283.698 164.003 285.014 165.539 286.43C166.046 286.897 167.176 287.873 167.137 288.622C167.071 289.865 165.866 291.2 165.026 292.02C164.512 292.522 163.833 293.125 163.121 293.318C158.553 294.56 147.945 294.544 142.77 294.778C133.94 295.178 125.217 295.854 116.361 295.861C113.729 295.834 107.76 296.262 105.724 294.666C104.775 293.921 104.563 292.771 104.474 291.625C104.314 289.595 104.941 287.662 106.26 286.111C108.119 283.923 110.918 282.744 113.671 282.159C118.074 281.224 122.846 282.75 127.381 282.372C131.337 282.042 135.263 280.967 139.178 280.311C144.33 279.448 149.509 279.03 154.714 278.662Z" fill="#231F20"/>
<path d="M72.5072 0.13125C84.0854 -0.881178 97.5664 4.13742 107.847 9.19915C112.304 11.3941 116.734 14.0505 121.579 15.2786C130.935 17.6489 140.666 14.8 149.943 16.9584C155.768 18.313 161.008 21.4199 164.21 26.5895C170.777 37.1927 166.828 51.8029 158.875 60.494C156.457 63.1369 150.354 67.6969 148.994 70.5694C148.523 71.5635 149.528 72.9129 149.561 73.9497C149.578 74.4922 149.392 75.1054 149.271 75.6336C151.211 76.6948 152.927 77.9168 154.234 79.7354C157.011 83.6003 156.951 88.1453 156.177 92.6613C155.371 97.3576 154.21 100.008 150.234 102.834C151.089 109.802 152.487 119.229 150.407 125.914C149.387 129.189 147.636 132.214 145.879 135.141C146.942 135.725 148.092 136.187 149.196 136.691C168.778 145.627 188.371 159.329 200.608 177.335C202.426 180.01 204.6 183.075 205.731 186.105C207.446 186.281 209.152 186.472 210.829 186.886C212.939 187.406 215.581 188.307 216.7 190.311C217.25 191.294 217.319 192.434 216.998 193.505C215.892 197.191 211.22 199.779 208.083 201.503C210.114 216.377 204.596 244.194 197.935 257.684C197.186 259.202 196.491 260.857 195.489 262.224C194.968 262.936 194.03 264.002 193.057 264.011C192.526 264.015 192.192 263.789 191.846 263.411C191.019 262.509 191.087 260.597 191.149 259.437C196.21 251.863 200.424 235.354 202.036 226.431C202.716 222.664 203.064 218.806 203.565 215.01C204.111 210.87 204.795 206.833 204.807 202.644C197.281 206.192 188.936 206.941 180.858 208.397C174.326 209.574 167.938 210.97 161.317 211.621C162.287 215.708 162.732 219.817 163.13 223.993C163.519 228.07 163.486 232.054 163.643 236.131C163.791 239.985 164.335 244.363 163.804 248.176C163.698 248.933 163.524 249.572 163.031 250.17C162.559 250.353 162.567 250.368 162.091 250.203C161.603 249.571 161.455 248.941 161.355 248.154C161.058 245.827 161.28 243.334 161.261 240.986C161.241 238.393 161.063 235.783 160.954 233.192C154.771 234.175 148.692 235.619 142.534 236.693C137.598 237.553 132.706 238.083 127.72 238.525C121.343 238.894 114.968 238.807 108.589 239.138C111.957 242.568 113.897 247.435 116.954 251.148C117.756 252.122 119.001 252.648 119.869 253.548C120.216 253.907 120.377 254.13 120.315 254.646C120.25 255.185 119.916 255.541 119.482 255.826C117.705 256.992 113.231 255.775 111.308 255.247C108.013 251.683 105.41 247.433 102.386 243.652C101.36 242.368 99.8581 241.384 99.1097 239.936C97.0661 239.67 94.959 239.821 92.9 239.712C90.3573 239.577 87.8463 239.006 85.3781 238.415C85.3171 242.767 86.0472 259 84.7927 261.664C84.5532 262.173 84.1399 262.69 83.5485 262.774C83.0917 262.839 82.5604 262.651 82.2464 262.31C81.6334 261.645 81.4227 260.6 81.2994 259.735C80.9606 257.361 81.1249 254.845 81.1306 252.447L81.1677 240.214C77.5173 241.182 73.9065 241.884 70.196 240.717C66.518 239.559 65.0276 237.11 63.3428 233.898C59.9512 234.912 56.0072 235.226 52.483 234.966C47.5867 234.606 40.57 233.14 37.2944 229.156C35.7495 227.278 34.9673 224.781 35.2081 222.358C36.7623 206.718 56.5775 181.593 67.4466 170.488C72.0354 165.799 77.1407 161.567 82.2098 157.419C78.2361 156.751 74.7037 155.525 71.2694 153.385C67.3262 150.93 64.1388 147.679 61.3708 143.97C51.4697 130.703 51.1768 115.307 47.5029 99.8155C48.4714 98.9825 48.7973 98.3489 49.2301 97.1314C46.3595 98.2911 43.6326 99.8114 40.858 101.181C33.1905 104.966 24.1644 109.525 15.8932 111.562C11.8365 112.561 5.86034 113.166 2.13478 110.776C1.44165 110.332 0.809528 109.696 0.654144 108.857C0.380391 107.381 1.18986 105.564 2.05708 104.414C8.52506 95.8365 33.4667 91.4991 43.9564 89.9589C43.4821 86.953 42.9256 83.9649 42.9122 80.913C38.705 77.7406 34.4779 74.5206 30.5766 70.9723C24.683 65.6106 19.3955 58.1826 19.0778 49.9624C18.5823 37.1443 25.8976 25.3284 34.305 16.2279C44.1711 5.54863 58.2603 0.726987 72.5072 0.13125Z" fill="#231F20"/>
<path d="M107.256 216.263C107.795 216.515 108.879 216.902 109.212 217.4C109.71 218.143 109.937 219.091 109.814 219.977C109.491 222.297 107.476 224.141 105.694 225.466C104.966 225.866 104.211 226.228 103.47 226.606C105.883 223.684 106.442 219.861 107.256 216.263Z" fill="#FEFEFE"/>
<path d="M139.385 70.5185C141.328 71.4422 143.211 72.4176 145.083 73.4765C144.922 74.1959 144.978 75.1396 144.425 75.6702C144.06 75.7084 143.716 75.7573 143.361 75.8521L143.033 75.9416C141.721 76.5923 140.482 77.3723 139.23 78.1313C139.041 75.5831 139.181 73.0606 139.385 70.5185Z" fill="#FEFEFE"/>
<path d="M133.792 67.9415C135.129 68.4294 136.41 68.9572 137.692 69.5777C136.469 72.8526 136.684 76.4458 136.918 79.8664L135.504 81.2817L133.914 83.1722C132.823 78.1361 133.49 73.0174 133.792 67.9415Z" fill="#FEFEFE"/>
<path d="M88.0628 158.507C89.7797 158.791 91.5585 158.764 93.2946 158.995L93.4142 159.685C93.4772 160.062 93.5256 160.448 93.6534 160.81C94.3135 162.682 95.871 163.629 97.5677 164.404C97.3622 164.73 95.9809 164.965 95.5473 165.085C93.598 165.585 91.6626 166.095 89.7419 166.699C88.9206 164.437 87.9497 162.248 86.8978 160.085C87.3192 159.588 87.6845 159.039 88.0628 158.507Z" fill="#FEFEFE"/>
<path d="M62.0583 66.9559L62.3438 67.1016C62.3938 68.4994 61.6852 70.1031 61.1422 71.369C58.7891 76.8576 54.47 81.4538 50.5199 85.8144C49.8199 86.5876 48.8282 88.0708 47.876 88.4566L47.614 88.0903C46.8456 84.5904 46.3176 81.1478 46.1537 77.562C49.0393 72.265 56.8049 69.288 62.0583 66.9559Z" fill="#FEFEFE"/>
<path d="M123.336 64.3142C126.107 65.1476 129.01 65.8548 131.575 67.2168C130.496 69.7259 129.262 72.1772 127.808 74.4914C122.315 83.2345 113.205 89.8536 103.124 92.1572C100.422 92.4684 97.8468 92.2947 95.1471 92.0977C95.9509 91.7425 96.7469 91.3734 97.5291 90.9726C107.43 85.9019 119.825 75.0789 123.336 64.3142Z" fill="#FEFEFE"/>
<path d="M81.0682 62.5945L81.2557 62.8041C81.2382 62.8985 81.2224 62.9933 81.2036 63.0873C80.8014 65.1007 79.5863 67.4283 78.713 69.3177C72.8527 81.9966 63.3723 87.7371 52.2391 95.0398L52.9139 94.2837C53.5298 93.6054 54.2054 92.7992 54.2977 91.8483C54.3303 91.5122 54.1875 91.4503 53.9971 91.2053C53.3321 90.964 52.7524 91.2281 52.1061 91.4198C51.0843 91.8092 49.7001 92.5116 48.6189 92.4896C48.2174 92.4814 48.3679 92.5343 48.0958 92.2316C48.2691 91.1268 49.853 90.0228 50.623 89.279C56.8083 83.3041 64.6979 74.9634 64.8675 65.9182C67.2443 65.0694 69.6861 64.201 72.1674 63.7241C75.0757 63.1646 78.1252 63.0169 81.0682 62.5945Z" fill="#FEFEFE"/>
<path d="M107.068 61.4388C112.001 62.0964 116.717 62.7927 121.589 63.8788C121.061 64.9213 120.52 65.9585 119.958 66.9832C118.135 70.3086 115.771 73.2307 113.232 76.0299C103.681 86.5591 91.5901 92.5335 78.1042 96.4469C74.1285 97.6518 70.2236 98.4413 66.1063 98.9593C69.5154 96.5218 73.4134 94.5075 77.0007 92.3122C89.3846 84.7324 101.782 75.5705 107.068 61.4388Z" fill="#FEFEFE"/>
<path d="M92.8335 61.3697C96.679 61.0519 100.719 61.2175 104.568 61.4796C96.2194 79.5905 81.1203 87.0385 64.9863 96.8689C62.9785 98.2879 55.6327 97.4915 53.0453 97.2514C57.5933 94.4937 62.1825 91.3653 66.4547 88.1909C74.1861 82.4467 82.3462 71.8167 83.8106 62.1144L92.8335 61.3697Z" fill="#FEFEFE"/>
<path d="M85.4929 198.272C89.0028 197.828 92.8431 198.986 95.6803 201.074C99.3652 203.787 102.891 209.887 103.501 214.439C104.008 218.218 103.095 222.243 100.776 225.278C98.7274 222.475 96.6643 219.403 95.1836 216.262C94.5694 214.959 93.8409 212.235 93.195 211.278C92.6137 210.417 91.8262 209.917 90.8101 209.787C90.3635 209.96 90.1601 209.978 90.0051 210.485C89.6964 211.493 90.2866 212.758 90.7104 213.657C92.0385 216.469 93.9426 219.009 95.5534 221.664C99.1618 227.615 102.738 233.662 106.547 239.486C109.383 243.823 112.81 247.879 114.894 252.635C114.406 252.95 113.994 253.351 113.565 253.741C108.831 250.663 103.364 241.088 99.7484 236.374C98.0233 234.124 95.9508 232.049 94.1049 229.886C92.5018 228.014 83.7857 217.965 82.1692 217.525C81.856 217.439 81.7742 217.587 81.5236 217.744C81.4488 217.941 81.367 218.12 81.3499 218.336C81.3137 218.796 81.5375 219.253 81.836 219.589L95.8483 235.512C91.2559 235.638 82.3526 234.237 78.7357 231.212C77.2534 229.973 75.6487 226.477 74.0249 225.931C73.7402 225.835 73.7894 225.892 73.4738 226.033C73.1138 226.563 72.9173 226.907 73.0523 227.583C73.7133 230.893 78.6856 234.074 81.2483 235.908C79.3495 236.845 77.408 237.546 75.2729 237.641C73.0279 237.741 71.0409 237.001 69.4338 235.423C65.0252 231.095 63.9144 222.801 63.964 216.948C66.3659 214.376 68.9668 211.996 71.3675 209.425C74.2779 206.307 76.9252 201.763 80.621 199.575C82.0146 198.75 83.9187 198.547 85.4929 198.272Z" fill="#FEFEFE"/>
<path d="M130.401 75.4521C130.721 76.4491 130.641 77.8228 130.742 78.8776C131.074 82.3556 131.543 85.5259 132.946 88.7557C132.712 89.5581 132.387 90.3414 132.541 91.1834C132.858 91.5545 133.022 91.7217 133.553 91.773C133.599 91.7771 134.169 91.7486 134.25 91.7091C134.715 91.4825 135.344 89.882 135.588 89.4116C136.331 87.9784 137.347 86.8342 138.554 85.7737C142.125 82.638 145.182 81.0074 149.973 81.2902C152.526 85.8384 151.718 90.3036 150.682 95.1517C150.467 96.1584 150.21 97.2469 149.574 98.0799C148.162 99.9331 143.796 101.54 141.551 102.062C140.646 102.272 139.304 102.248 138.566 102.814C138.316 103.006 138.389 103.121 138.373 103.407C138.544 103.64 138.573 103.702 138.812 103.911C140.222 105.149 143.787 104.231 145.516 103.972C146.304 110.381 147.894 118.122 145.517 124.3C143.826 128.695 141.343 132.494 138.981 136.523C138.089 138.044 137.299 139.949 136.049 141.196C132.793 144.443 127.459 146.836 123.251 148.706C114.145 152.753 104.431 154.709 94.5188 155.146C92.0237 155.256 89.4382 155.435 86.959 155.07C84.0437 154.641 81.2765 153.516 78.5434 152.46C74.5767 150.702 71.1167 148.091 68.1063 144.991C58.9048 135.519 56.8604 124.594 54.4658 112.225C53.6779 108.155 53.0071 102.891 51.0258 99.2388C53.0136 99.4496 60.9923 99.3178 62.0703 99.8236C62.6039 100.074 63.0514 101.255 63.7413 101.623C64.6154 102.09 66.6427 101.547 67.5974 101.39C76.8098 99.8777 84.2296 96.9291 92.8315 93.5818C94.5135 94.0392 96.1889 94.3484 97.9063 94.6381C97.2014 95.3299 96.4432 96.0628 95.8879 96.8807C95.3559 97.6649 95.0158 98.5841 95.244 99.5343C95.4267 100.295 95.7468 101.247 96.4846 101.627C97.7639 102.287 100.265 99.3817 101.437 98.7969C103.378 97.8297 106.239 99.0451 108.346 98.4311C108.909 98.2667 109.48 97.9395 109.697 97.3629C109.902 96.8185 109.806 96.1857 109.62 95.6498C109.184 94.3936 108.203 94.0379 107.101 93.5098C117.189 88.8952 123.773 84.7438 130.401 75.4521Z" fill="#FEFEFE"/>
<path d="M143.709 85.2976C144.261 85.2647 144.846 85.2984 145.37 85.4852C146.26 85.8022 147.053 86.332 147.458 87.2114C148.178 88.7752 147.73 90.8485 147.112 92.3691C146.578 93.6794 145.232 96.0791 143.744 96.5096C143.234 96.6573 143.147 96.5719 142.719 96.3208C142.45 95.7963 142.382 95.5468 142.431 94.9576C143.234 94.1161 143.829 93.3612 144.387 92.3358C144.866 91.2228 145.301 90.0668 145.189 88.8293C145.139 88.2775 145.033 88.0838 144.618 87.7347C142.482 87.6395 141.281 90.5209 139.387 90.7467C138.759 90.8216 138.688 90.7345 138.23 90.3585C138.169 89.9488 138.158 89.7571 138.344 89.3612C139.269 87.3843 141.755 86.0268 143.709 85.2976Z" fill="#231F20"/>
<path d="M107.598 103.87C108.136 103.795 108.721 103.811 109.259 103.887C110.622 104.079 112.323 104.952 113.079 106.139C113.446 106.718 113.576 107.386 113.452 108.054C112.274 109.11 109.308 107.866 107.684 108.172C106.001 108.489 104.582 109.468 103.613 110.875C103.572 110.935 103.532 110.997 103.492 111.058C103.073 112.087 102.83 114.085 101.858 114.684C101.328 114.701 100.834 114.609 100.413 114.26C99.9442 113.872 99.7331 113.403 99.6623 112.812C99.4545 111.068 100.565 108.505 101.614 107.159C103.172 105.159 105.137 104.166 107.598 103.87Z" fill="#231F20"/>
<path d="M64.8626 122.906C65.3268 122.928 65.8242 122.934 66.2648 123.095C69.0381 124.105 70.8962 129.006 72.1409 131.457C71.3314 132.443 70.5252 133.142 69.4514 133.827C68.6293 134.169 67.5794 134.669 66.6691 134.494C66.3103 134.424 66.0825 134.106 65.8816 133.82C64.5132 131.877 62.6315 127.322 63.1408 124.908C63.3621 123.859 63.9873 123.428 64.8626 122.906Z" fill="#231F20"/>
<path d="M115.059 115.624C115.266 115.637 115.473 115.646 115.679 115.671C117.328 115.876 118.818 117.956 119.761 119.194C120.45 120.099 122.018 121.898 121.818 123.095C121.567 124.596 119.709 125.707 118.571 126.537C118.282 126.696 117.993 126.855 117.7 127.008C116.991 127.38 116.544 127.579 115.75 127.329C115.498 126.937 115.259 126.535 115.05 126.117C113.991 124.006 111.911 119.975 112.77 117.598C113.163 116.514 114.069 116.068 115.059 115.624Z" fill="#231F20"/>
<path d="M64.4836 109.163C65.8979 109.049 67.2557 109.213 68.5484 109.822C69.7296 110.378 71.1484 111.357 71.569 112.666C71.7939 113.366 71.6451 114.05 71.2721 114.664C69.5637 117.473 67.2195 113.807 64.303 114.42C64.2277 114.436 64.1529 114.453 64.0776 114.47C62.7613 115.259 61.6057 116.905 60.1857 117.392C59.5947 117.594 59.1313 117.568 58.5586 117.308C58.11 116.862 57.9082 116.527 57.8374 115.886C57.6731 114.396 58.3821 112.716 59.3258 111.593C60.7438 109.906 62.3867 109.385 64.4836 109.163Z" fill="#231F20"/>
<path d="M104.321 135.299C104.682 135.427 105.134 135.589 105.425 135.837C105.755 136.116 105.957 136.602 105.883 137.031C105.586 138.746 102.449 140.712 101.067 141.589C97.6306 143.769 93.4471 145.394 89.3652 144.302C87.7454 143.869 86.1595 143.158 84.5235 142.818L84.1537 142.743C83.6078 142.663 83.0074 142.606 82.4847 142.426C81.7412 142.17 81.0745 141.422 80.7816 140.711C80.8841 140.259 80.928 140.162 81.3454 139.886C82.5352 139.101 83.8088 139.62 85.0612 139.876C90.018 140.89 96.2102 140.91 100.661 138.168C101.942 137.38 102.905 136.224 104.16 135.402C104.213 135.367 104.267 135.333 104.321 135.299Z" fill="#231F20"/>
<path d="M81.6972 106.039C82.1125 106.037 82.7341 105.979 83.0847 106.205C83.6164 106.546 83.7978 107.049 83.9251 107.639C85.1348 113.24 81.7737 122.475 78.8112 127.14C80.4155 127.586 82.0873 127.828 83.7539 127.743C85.2837 127.666 87.2317 127.224 88.7115 127.595C89.2798 127.737 89.4091 127.95 89.7235 128.422C89.8037 129.112 89.634 129.499 89.3566 130.126C83.5989 131.832 80.9012 130.184 75.9342 127.797C76.572 125.081 78.3215 122.483 79.2603 119.826C80.1881 117.2 80.8231 114.308 80.8007 111.511C80.7902 110.19 80.5717 108.862 80.7121 107.542C80.7991 106.723 81.0977 106.526 81.6972 106.039Z" fill="#231F20"/>
<path d="M71.6807 3.78705C83.8649 3.11237 95.9833 7.60196 106.733 12.9433C111.849 15.4853 116.788 18.2365 122.427 19.4789C125.737 20.2081 129.081 20.512 132.466 20.5584C140.496 20.6691 150.096 19.1696 156.821 24.5878C160.308 27.398 162.131 31.6129 162.604 36.0008C163.457 43.9114 161.375 52.2163 156.193 58.3417C152.853 62.2897 148.911 65.6407 145.623 69.6925C143.156 68.3871 140.559 67.3555 137.983 66.2894C128.022 62.1652 117.87 59.3802 107.096 58.4268C103.066 58.4667 99.0242 58.3267 94.9964 58.4667C85.4179 58.7987 73.6551 60.1847 64.6155 63.3127C57.9474 65.6204 46.4982 70.4909 43.3588 76.9687C40.6811 74.9532 38.0001 72.8111 35.4692 70.6154C29.7537 65.6562 23.2691 58.6803 22.7419 50.7091C21.9959 39.4356 28.2015 28.7034 35.4244 20.5348C45.2718 9.39854 57.0989 4.66479 71.6807 3.78705Z" fill="#FEFEFE"/>
<path d="M144.141 137.504C147.132 138.949 150.061 141 152.956 142.667C151.37 144.764 150.618 147.404 149.973 149.92C147.096 161.14 144.483 172.438 143.871 184.041C143.791 185.552 143.349 187.928 144.131 189.252C144.59 189.44 144.9 189.499 145.394 189.363C145.845 189.238 146.128 189.034 146.355 188.624C146.821 187.781 147.682 173.288 147.954 170.85C148.616 164.918 151.752 148.671 154.448 143.877L154.595 143.618C167.696 151.135 182.36 162.588 192.124 174.108C195.29 177.844 198.065 181.899 200.648 186.054C199.162 185.901 197.67 185.814 196.178 185.774C192.45 185.674 176.694 185.684 174.609 188.024C174.237 188.442 174.219 188.756 174.206 189.292C174.658 189.956 175.176 190.065 175.959 190.101C178.828 190.232 182.079 189.657 184.971 189.449C190.975 189.015 206.2 188.438 211.359 190.307C212.266 190.636 212.923 190.896 213.345 191.794C213.307 192.015 213.297 192.164 213.178 192.373C212.805 193.025 211.823 193.573 211.193 193.978C207.321 196.467 203.604 197.652 199.218 198.917C195.55 199.975 191.867 201.108 188.136 201.914C181.927 203.257 175.544 204.363 169.227 205.066C165.852 205.441 162.45 205.622 159.068 205.937C155.48 206.272 151.944 206.907 148.331 206.977C142.334 207.094 131.065 206.415 125.786 203.498C127.484 202.151 129.476 201.14 131.472 200.317C133.237 199.588 135.105 199.216 136.922 198.652C142.045 197.063 147.093 195.516 152.314 194.251C154.553 193.709 158.268 193.207 160.216 192.291C160.836 191.999 161.468 191.431 161.613 190.73C161.729 190.166 161.668 189.873 161.389 189.384C160.974 189.113 160.817 189.003 160.306 188.986C157.322 188.885 153.085 190.405 150.11 191.173C142.946 193.023 127.836 196.321 122.497 201.218C121.919 201.749 121.315 202.421 121.351 203.261C121.408 204.583 122.65 205.834 123.616 206.601C130.341 211.944 150.499 212.936 158.878 211.893C159.443 213.841 159.586 215.98 159.814 217.994C160.512 222.242 160.745 226.561 161.053 230.849C153.892 231.433 146.693 233.42 139.563 234.429C128.695 235.967 117.994 236.161 107.045 236.176C105.901 234.02 104.545 231.942 103.278 229.855C104.075 229.599 104.818 229.308 105.545 228.887C108.302 227.288 111.235 224.21 111.966 221.039C112.301 219.583 112.245 217.903 111.358 216.643C110.279 215.112 108.831 214.822 107.118 214.476L106.305 210.545C109.807 210.645 114.343 210.325 117.706 209.369C118.458 209.156 119.263 208.946 119.655 208.233L119.382 207.815C116.568 206.329 109.029 208.349 105.364 208.081C105.279 208.075 105.194 208.067 105.109 208.059C104.23 206.601 103.261 205.147 102.229 203.792C98.7313 199.193 94.468 196.602 88.683 195.871C79.5771 194.72 75.2788 200.721 70.0503 207.016C67.6227 209.939 64.6 213.315 61.5688 215.613C61.5046 215.662 61.4387 215.709 61.3736 215.757C60.8989 220.274 61.3199 225.363 61.9996 229.854C60.0158 230.33 57.855 230.495 55.8188 230.568C51.3789 230.727 44.5518 230.047 41.1992 226.742C40.1612 225.719 39.6958 224.446 39.7263 222.999C39.7853 220.196 41.3147 217.11 42.3121 214.522C48.7699 197.767 64.4052 179.617 77.335 167.503C79.7793 165.213 82.494 163.219 84.9607 160.947C89.5954 171.516 90.6936 182.679 94.0734 193.525C94.3773 194.5 94.7446 195.423 95.6907 195.91C96.2114 195.863 96.2411 195.874 96.6255 195.527C96.92 194.77 96.8984 194.166 96.7666 193.366C96.2663 190.328 95.1697 187.256 94.4346 184.253C93.1895 179.165 92.2231 174.034 90.5496 169.062C93.7859 168.171 97.0652 167.414 100.325 166.612C100.519 167.334 100.681 167.994 101.243 168.531C102.796 170.012 105.374 170.209 107.42 170.154C113.771 169.982 122.545 165.742 127.684 162.2C130.444 160.297 132.951 158.042 135.541 155.919C137.529 154.29 139.663 152.797 141.422 150.912C143.399 148.793 146.332 144.999 146.135 141.96C146.057 140.763 145.522 139.792 144.61 139.031C144.32 138.789 144.089 138.597 143.863 138.287L144.141 137.504Z" fill="#FEFEFE"/>
<path d="M136.292 166.672C136.716 166.738 137.165 166.826 137.568 166.975C138.394 167.279 139.105 167.988 139.41 168.813C139.676 169.533 139.625 170.339 139.286 171.025C138.771 172.07 137.982 172.361 136.936 172.74C136.599 172.699 136.251 172.658 135.923 172.565C135.187 172.353 134.428 171.795 134.056 171.12C133.677 170.433 133.675 169.592 133.927 168.864C134.337 167.684 135.226 167.192 136.292 166.672Z" fill="#231F20"/>
<path d="M142.548 154.478C142.921 154.449 143.312 154.44 143.685 154.477C144.468 154.553 145.264 155.024 145.744 155.645C146.294 156.356 146.388 157.237 146.217 158.098C145.964 159.37 145.13 159.896 144.109 160.572C143.623 160.601 143.11 160.621 142.627 160.55C141.898 160.443 141.132 159.868 140.744 159.254C140.305 158.558 140.233 157.699 140.434 156.912C140.735 155.732 141.541 155.068 142.548 154.478Z" fill="#231F20"/>
<path d="M102.676 191.12C103.268 191.067 103.898 190.993 104.487 191.109C105.264 191.26 105.975 191.783 106.399 192.446C106.835 193.126 106.957 193.917 106.778 194.702C106.493 195.948 105.707 196.637 104.664 197.284C104.217 197.328 103.775 197.327 103.329 197.269C102.52 197.164 101.742 196.737 101.25 196.079C100.774 195.443 100.59 194.66 100.708 193.876C100.905 192.571 101.632 191.834 102.676 191.12Z" fill="#231F20"/>
<path d="M98.7434 173.588C99.3125 173.581 99.8404 173.601 100.394 173.744C101.319 173.984 102.076 174.585 102.534 175.424C102.91 176.113 103.015 176.908 102.772 177.658C102.403 178.79 101.69 179.365 100.662 179.884C100.279 179.88 99.9006 179.846 99.5215 179.793C98.5079 179.65 97.7163 179.277 97.1147 178.421C96.6461 177.754 96.4732 176.987 96.6457 176.187C96.9093 174.964 97.7399 174.237 98.7434 173.588Z" fill="#231F20"/>
<path d="M151.578 200.126C152.54 200.038 153.674 199.957 154.631 200.071C155.237 200.144 155.429 200.311 155.809 200.766C155.901 201.303 155.896 201.52 155.665 202.016C154.364 203.009 142.394 202.881 139.734 203.078C138.543 203.089 137.288 203.375 136.107 203.228C135.571 203.161 135.241 202.992 134.896 202.572C134.872 202.248 134.762 202.082 135.014 201.831C136.457 200.394 148.884 200.287 151.578 200.126Z" fill="#231F20"/>
<path d="M190.235 191.577C193.081 191.138 200.038 191.169 202.734 192.269C203.456 192.563 203.877 193.291 204.143 193.98C204.105 194.249 204.147 194.417 203.927 194.608C202.918 195.482 196.295 194.042 194.308 193.932C191.866 193.95 181.802 195.256 180.633 194.842C180.146 194.669 179.99 194.37 179.779 193.93C179.778 193.588 179.701 193.383 179.922 193.097C180.91 191.822 188.28 191.761 190.235 191.577Z" fill="#231F20"/>
<path d="M169.29 181.158C169.925 181.107 170.557 181.035 171.073 181.462C173.045 183.091 173.821 187.135 173.966 189.601C174.056 191.139 173.673 192.619 172.623 193.776C171.32 195.214 169.686 195.565 167.836 195.648C167.065 195.563 166.311 195.485 165.625 195.095C164.407 194.402 163.71 192.863 163.418 191.552C162.987 189.614 162.132 184.988 163.335 183.386C164.399 181.967 167.651 181.517 169.29 181.158Z" fill="#231F20"/>
</svg>
