<svg width="29" height="15" viewBox="0 0 29 15" fill="none" xmlns="http://www.w3.org/2000/svg">
<path d="M4.83333 8.70833C6.1625 8.70833 7.25 7.62083 7.25 6.29167C7.25 4.9625 6.1625 3.875 4.83333 3.875C3.50417 3.875 2.41667 4.9625 2.41667 6.29167C2.41667 7.62083 3.50417 8.70833 4.83333 8.70833ZM6.19875 10.0375C5.75167 9.965 5.30458 9.91667 4.83333 9.91667C3.63708 9.91667 2.50125 10.1704 1.47417 10.6175C0.58 11.0042 0 11.8742 0 12.8529V14.75H5.4375V12.8046C5.4375 11.8017 5.71542 10.8592 6.19875 10.0375ZM24.1667 8.70833C25.4958 8.70833 26.5833 7.62083 26.5833 6.29167C26.5833 4.9625 25.4958 3.875 24.1667 3.875C22.8375 3.875 21.75 4.9625 21.75 6.29167C21.75 7.62083 22.8375 8.70833 24.1667 8.70833ZM29 12.8529C29 11.8742 28.42 11.0042 27.5258 10.6175C26.4988 10.1704 25.3629 9.91667 24.1667 9.91667C23.6954 9.91667 23.2483 9.965 22.8013 10.0375C23.2846 10.8592 23.5625 11.8017 23.5625 12.8046V14.75H29V12.8529ZM19.6233 9.49375C18.2096 8.86542 16.4696 8.40625 14.5 8.40625C12.5304 8.40625 10.7904 8.8775 9.37667 9.49375C8.07167 10.0737 7.25 11.3787 7.25 12.8046V14.75H21.75V12.8046C21.75 11.3787 20.9283 10.0737 19.6233 9.49375ZM9.75125 12.3333C9.86 12.0554 9.90833 11.8621 10.8508 11.4996C12.0229 11.0404 13.2554 10.8229 14.5 10.8229C15.7446 10.8229 16.9771 11.0404 18.1492 11.4996C19.0796 11.8621 19.1279 12.0554 19.2488 12.3333H9.75125ZM14.5 2.66667C15.1646 2.66667 15.7083 3.21042 15.7083 3.875C15.7083 4.53958 15.1646 5.08333 14.5 5.08333C13.8354 5.08333 13.2917 4.53958 13.2917 3.875C13.2917 3.21042 13.8354 2.66667 14.5 2.66667ZM14.5 0.25C12.4942 0.25 10.875 1.86917 10.875 3.875C10.875 5.88083 12.4942 7.5 14.5 7.5C16.5058 7.5 18.125 5.88083 18.125 3.875C18.125 1.86917 16.5058 0.25 14.5 0.25Z" fill="black" fill-opacity="0.6"/>
</svg>
