<svg width="20" height="20" viewBox="0 0 20 20" fill="none" xmlns="http://www.w3.org/2000/svg">
<path d="M2.5 9.4978C3.88071 9.4978 5 8.37851 5 6.9978C5 5.61709 3.88071 4.4978 2.5 4.4978C1.11929 4.4978 0 5.61709 0 6.9978C0 8.37851 1.11929 9.4978 2.5 9.4978Z" fill="black" fill-opacity="0.6"/>
<path d="M7 5.4978C8.38071 5.4978 9.5 4.37851 9.5 2.9978C9.5 1.61709 8.38071 0.497803 7 0.497803C5.61929 0.497803 4.5 1.61709 4.5 2.9978C4.5 4.37851 5.61929 5.4978 7 5.4978Z" fill="black" fill-opacity="0.6"/>
<path d="M13 5.4978C14.3807 5.4978 15.5 4.37851 15.5 2.9978C15.5 1.61709 14.3807 0.497803 13 0.497803C11.6193 0.497803 10.5 1.61709 10.5 2.9978C10.5 4.37851 11.6193 5.4978 13 5.4978Z" fill="black" fill-opacity="0.6"/>
<path d="M17.5 9.4978C18.8807 9.4978 20 8.37851 20 6.9978C20 5.61709 18.8807 4.4978 17.5 4.4978C16.1193 4.4978 15 5.61709 15 6.9978C15 8.37851 16.1193 9.4978 17.5 9.4978Z" fill="black" fill-opacity="0.6"/>
<path d="M15.34 12.3578C14.47 11.3378 13.74 10.4678 12.86 9.4478C12.4 8.9078 11.81 8.3678 11.11 8.1278C11 8.0878 10.89 8.0578 10.78 8.0378C10.53 7.9978 10.26 7.9978 10 7.9978C9.74 7.9978 9.47 7.9978 9.21 8.0478C9.1 8.0678 8.99 8.0978 8.88 8.1378C8.18 8.3778 7.6 8.9178 7.13 9.4578C6.26 10.4778 5.53 11.3478 4.65 12.3678C3.34 13.6778 1.73 15.1278 2.03 17.1578C2.32 18.1778 3.05 19.1878 4.36 19.4778C5.09 19.6278 7.42 19.0378 9.9 19.0378H10.08C12.56 19.0378 14.89 19.6178 15.62 19.4778C16.93 19.1878 17.66 18.1678 17.95 17.1578C18.26 15.1178 16.65 13.6678 15.34 12.3578Z" fill="black" fill-opacity="0.6"/>
</svg>
